%TF.GenerationSoftware,KiCad,Pcbnew,8.0.6*%
%TF.CreationDate,2024-10-26T13:12:16+05:00*%
%TF.ProjectId,drone_pcb,64726f6e-655f-4706-9362-2e6b69636164,rev?*%
%TF.SameCoordinates,Original*%
%TF.FileFunction,Soldermask,Bot*%
%TF.FilePolarity,Negative*%
%FSLAX46Y46*%
G04 Gerber Fmt 4.6, Leading zero omitted, Abs format (unit mm)*
G04 Created by KiCad (PCBNEW 8.0.6) date 2024-10-26 13:12:16*
%MOMM*%
%LPD*%
G01*
G04 APERTURE LIST*
%ADD10R,1.700000X1.700000*%
%ADD11O,1.700000X1.700000*%
%ADD12R,1.600000X1.600000*%
%ADD13O,1.600000X1.600000*%
G04 APERTURE END LIST*
D10*
%TO.C,REF\u002A\u002A*%
X162560000Y-73660000D03*
%TD*%
%TO.C,REF\u002A\u002A*%
X170180000Y-101600000D03*
D11*
X170180000Y-104140000D03*
X170180000Y-106680000D03*
X170180000Y-109220000D03*
X170180000Y-111760000D03*
%TD*%
D10*
%TO.C,REF\u002A\u002A*%
X134620000Y-116840000D03*
D11*
X134620000Y-119380000D03*
X134620000Y-121920000D03*
X134620000Y-124460000D03*
%TD*%
D10*
%TO.C,REF\u002A\u002A*%
X149860000Y-60960000D03*
D11*
X152400000Y-60960000D03*
X154940000Y-60960000D03*
X157480000Y-60960000D03*
X160020000Y-60960000D03*
%TD*%
D10*
%TO.C,REF\u002A\u002A*%
X127000000Y-73660000D03*
D11*
X127000000Y-76200000D03*
X127000000Y-78740000D03*
X127000000Y-81280000D03*
X127000000Y-83820000D03*
%TD*%
D12*
%TO.C,REF\u002A\u002A*%
X142240000Y-73660000D03*
D13*
X142240000Y-76200000D03*
X142240000Y-78740000D03*
X142240000Y-81280000D03*
X142240000Y-83820000D03*
X142240000Y-86360000D03*
X142240000Y-88900000D03*
X142240000Y-91440000D03*
X142240000Y-93980000D03*
X142240000Y-96520000D03*
X142240000Y-99060000D03*
X142240000Y-101600000D03*
X142240000Y-104140000D03*
X142240000Y-106680000D03*
X142240000Y-109220000D03*
X157480000Y-109220000D03*
X157480000Y-106680000D03*
X157480000Y-104140000D03*
X157480000Y-101600000D03*
X157480000Y-99060000D03*
X157480000Y-96520000D03*
X157480000Y-93980000D03*
X157480000Y-91440000D03*
X157480000Y-88900000D03*
X157480000Y-86360000D03*
X157480000Y-83820000D03*
X157480000Y-81280000D03*
X157480000Y-78740000D03*
X157480000Y-76200000D03*
X157480000Y-73660000D03*
%TD*%
D10*
%TO.C,REF\u002A\u002A*%
X170180000Y-71120000D03*
D11*
X170180000Y-73660000D03*
X170180000Y-76200000D03*
X170180000Y-78740000D03*
X170180000Y-81280000D03*
X170180000Y-83820000D03*
X170180000Y-86360000D03*
X170180000Y-88900000D03*
X170180000Y-91440000D03*
X170180000Y-93980000D03*
%TD*%
M02*
