%TF.GenerationSoftware,KiCad,Pcbnew,8.0.6*%
%TF.CreationDate,2024-10-26T13:12:16+05:00*%
%TF.ProjectId,drone_pcb,64726f6e-655f-4706-9362-2e6b69636164,rev?*%
%TF.SameCoordinates,Original*%
%TF.FileFunction,Legend,Top*%
%TF.FilePolarity,Positive*%
%FSLAX46Y46*%
G04 Gerber Fmt 4.6, Leading zero omitted, Abs format (unit mm)*
G04 Created by KiCad (PCBNEW 8.0.6) date 2024-10-26 13:12:16*
%MOMM*%
%LPD*%
G01*
G04 APERTURE LIST*
%ADD10C,0.150000*%
%ADD11C,0.120000*%
G04 APERTURE END LIST*
D10*
X161226666Y-71784819D02*
X160893333Y-71308628D01*
X160655238Y-71784819D02*
X160655238Y-70784819D01*
X160655238Y-70784819D02*
X161036190Y-70784819D01*
X161036190Y-70784819D02*
X161131428Y-70832438D01*
X161131428Y-70832438D02*
X161179047Y-70880057D01*
X161179047Y-70880057D02*
X161226666Y-70975295D01*
X161226666Y-70975295D02*
X161226666Y-71118152D01*
X161226666Y-71118152D02*
X161179047Y-71213390D01*
X161179047Y-71213390D02*
X161131428Y-71261009D01*
X161131428Y-71261009D02*
X161036190Y-71308628D01*
X161036190Y-71308628D02*
X160655238Y-71308628D01*
X161655238Y-71261009D02*
X161988571Y-71261009D01*
X162131428Y-71784819D02*
X161655238Y-71784819D01*
X161655238Y-71784819D02*
X161655238Y-70784819D01*
X161655238Y-70784819D02*
X162131428Y-70784819D01*
X162893333Y-71261009D02*
X162560000Y-71261009D01*
X162560000Y-71784819D02*
X162560000Y-70784819D01*
X162560000Y-70784819D02*
X163036190Y-70784819D01*
X163560000Y-70784819D02*
X163560000Y-71022914D01*
X163321905Y-70927676D02*
X163560000Y-71022914D01*
X163560000Y-71022914D02*
X163798095Y-70927676D01*
X163417143Y-71213390D02*
X163560000Y-71022914D01*
X163560000Y-71022914D02*
X163702857Y-71213390D01*
X164321905Y-70784819D02*
X164321905Y-71022914D01*
X164083810Y-70927676D02*
X164321905Y-71022914D01*
X164321905Y-71022914D02*
X164560000Y-70927676D01*
X164179048Y-71213390D02*
X164321905Y-71022914D01*
X164321905Y-71022914D02*
X164464762Y-71213390D01*
X168846666Y-99724819D02*
X168513333Y-99248628D01*
X168275238Y-99724819D02*
X168275238Y-98724819D01*
X168275238Y-98724819D02*
X168656190Y-98724819D01*
X168656190Y-98724819D02*
X168751428Y-98772438D01*
X168751428Y-98772438D02*
X168799047Y-98820057D01*
X168799047Y-98820057D02*
X168846666Y-98915295D01*
X168846666Y-98915295D02*
X168846666Y-99058152D01*
X168846666Y-99058152D02*
X168799047Y-99153390D01*
X168799047Y-99153390D02*
X168751428Y-99201009D01*
X168751428Y-99201009D02*
X168656190Y-99248628D01*
X168656190Y-99248628D02*
X168275238Y-99248628D01*
X169275238Y-99201009D02*
X169608571Y-99201009D01*
X169751428Y-99724819D02*
X169275238Y-99724819D01*
X169275238Y-99724819D02*
X169275238Y-98724819D01*
X169275238Y-98724819D02*
X169751428Y-98724819D01*
X170513333Y-99201009D02*
X170180000Y-99201009D01*
X170180000Y-99724819D02*
X170180000Y-98724819D01*
X170180000Y-98724819D02*
X170656190Y-98724819D01*
X171180000Y-98724819D02*
X171180000Y-98962914D01*
X170941905Y-98867676D02*
X171180000Y-98962914D01*
X171180000Y-98962914D02*
X171418095Y-98867676D01*
X171037143Y-99153390D02*
X171180000Y-98962914D01*
X171180000Y-98962914D02*
X171322857Y-99153390D01*
X171941905Y-98724819D02*
X171941905Y-98962914D01*
X171703810Y-98867676D02*
X171941905Y-98962914D01*
X171941905Y-98962914D02*
X172180000Y-98867676D01*
X171799048Y-99153390D02*
X171941905Y-98962914D01*
X171941905Y-98962914D02*
X172084762Y-99153390D01*
X133286666Y-114964819D02*
X132953333Y-114488628D01*
X132715238Y-114964819D02*
X132715238Y-113964819D01*
X132715238Y-113964819D02*
X133096190Y-113964819D01*
X133096190Y-113964819D02*
X133191428Y-114012438D01*
X133191428Y-114012438D02*
X133239047Y-114060057D01*
X133239047Y-114060057D02*
X133286666Y-114155295D01*
X133286666Y-114155295D02*
X133286666Y-114298152D01*
X133286666Y-114298152D02*
X133239047Y-114393390D01*
X133239047Y-114393390D02*
X133191428Y-114441009D01*
X133191428Y-114441009D02*
X133096190Y-114488628D01*
X133096190Y-114488628D02*
X132715238Y-114488628D01*
X133715238Y-114441009D02*
X134048571Y-114441009D01*
X134191428Y-114964819D02*
X133715238Y-114964819D01*
X133715238Y-114964819D02*
X133715238Y-113964819D01*
X133715238Y-113964819D02*
X134191428Y-113964819D01*
X134953333Y-114441009D02*
X134620000Y-114441009D01*
X134620000Y-114964819D02*
X134620000Y-113964819D01*
X134620000Y-113964819D02*
X135096190Y-113964819D01*
X135620000Y-113964819D02*
X135620000Y-114202914D01*
X135381905Y-114107676D02*
X135620000Y-114202914D01*
X135620000Y-114202914D02*
X135858095Y-114107676D01*
X135477143Y-114393390D02*
X135620000Y-114202914D01*
X135620000Y-114202914D02*
X135762857Y-114393390D01*
X136381905Y-113964819D02*
X136381905Y-114202914D01*
X136143810Y-114107676D02*
X136381905Y-114202914D01*
X136381905Y-114202914D02*
X136620000Y-114107676D01*
X136239048Y-114393390D02*
X136381905Y-114202914D01*
X136381905Y-114202914D02*
X136524762Y-114393390D01*
X147984819Y-62293333D02*
X147508628Y-62626666D01*
X147984819Y-62864761D02*
X146984819Y-62864761D01*
X146984819Y-62864761D02*
X146984819Y-62483809D01*
X146984819Y-62483809D02*
X147032438Y-62388571D01*
X147032438Y-62388571D02*
X147080057Y-62340952D01*
X147080057Y-62340952D02*
X147175295Y-62293333D01*
X147175295Y-62293333D02*
X147318152Y-62293333D01*
X147318152Y-62293333D02*
X147413390Y-62340952D01*
X147413390Y-62340952D02*
X147461009Y-62388571D01*
X147461009Y-62388571D02*
X147508628Y-62483809D01*
X147508628Y-62483809D02*
X147508628Y-62864761D01*
X147461009Y-61864761D02*
X147461009Y-61531428D01*
X147984819Y-61388571D02*
X147984819Y-61864761D01*
X147984819Y-61864761D02*
X146984819Y-61864761D01*
X146984819Y-61864761D02*
X146984819Y-61388571D01*
X147461009Y-60626666D02*
X147461009Y-60959999D01*
X147984819Y-60959999D02*
X146984819Y-60959999D01*
X146984819Y-60959999D02*
X146984819Y-60483809D01*
X146984819Y-59959999D02*
X147222914Y-59959999D01*
X147127676Y-60198094D02*
X147222914Y-59959999D01*
X147222914Y-59959999D02*
X147127676Y-59721904D01*
X147413390Y-60102856D02*
X147222914Y-59959999D01*
X147222914Y-59959999D02*
X147413390Y-59817142D01*
X146984819Y-59198094D02*
X147222914Y-59198094D01*
X147127676Y-59436189D02*
X147222914Y-59198094D01*
X147222914Y-59198094D02*
X147127676Y-58959999D01*
X147413390Y-59340951D02*
X147222914Y-59198094D01*
X147222914Y-59198094D02*
X147413390Y-59055237D01*
X125666666Y-71784819D02*
X125333333Y-71308628D01*
X125095238Y-71784819D02*
X125095238Y-70784819D01*
X125095238Y-70784819D02*
X125476190Y-70784819D01*
X125476190Y-70784819D02*
X125571428Y-70832438D01*
X125571428Y-70832438D02*
X125619047Y-70880057D01*
X125619047Y-70880057D02*
X125666666Y-70975295D01*
X125666666Y-70975295D02*
X125666666Y-71118152D01*
X125666666Y-71118152D02*
X125619047Y-71213390D01*
X125619047Y-71213390D02*
X125571428Y-71261009D01*
X125571428Y-71261009D02*
X125476190Y-71308628D01*
X125476190Y-71308628D02*
X125095238Y-71308628D01*
X126095238Y-71261009D02*
X126428571Y-71261009D01*
X126571428Y-71784819D02*
X126095238Y-71784819D01*
X126095238Y-71784819D02*
X126095238Y-70784819D01*
X126095238Y-70784819D02*
X126571428Y-70784819D01*
X127333333Y-71261009D02*
X127000000Y-71261009D01*
X127000000Y-71784819D02*
X127000000Y-70784819D01*
X127000000Y-70784819D02*
X127476190Y-70784819D01*
X128000000Y-70784819D02*
X128000000Y-71022914D01*
X127761905Y-70927676D02*
X128000000Y-71022914D01*
X128000000Y-71022914D02*
X128238095Y-70927676D01*
X127857143Y-71213390D02*
X128000000Y-71022914D01*
X128000000Y-71022914D02*
X128142857Y-71213390D01*
X128761905Y-70784819D02*
X128761905Y-71022914D01*
X128523810Y-70927676D02*
X128761905Y-71022914D01*
X128761905Y-71022914D02*
X129000000Y-70927676D01*
X128619048Y-71213390D02*
X128761905Y-71022914D01*
X128761905Y-71022914D02*
X128904762Y-71213390D01*
X148526666Y-69034819D02*
X148193333Y-68558628D01*
X147955238Y-69034819D02*
X147955238Y-68034819D01*
X147955238Y-68034819D02*
X148336190Y-68034819D01*
X148336190Y-68034819D02*
X148431428Y-68082438D01*
X148431428Y-68082438D02*
X148479047Y-68130057D01*
X148479047Y-68130057D02*
X148526666Y-68225295D01*
X148526666Y-68225295D02*
X148526666Y-68368152D01*
X148526666Y-68368152D02*
X148479047Y-68463390D01*
X148479047Y-68463390D02*
X148431428Y-68511009D01*
X148431428Y-68511009D02*
X148336190Y-68558628D01*
X148336190Y-68558628D02*
X147955238Y-68558628D01*
X148955238Y-68511009D02*
X149288571Y-68511009D01*
X149431428Y-69034819D02*
X148955238Y-69034819D01*
X148955238Y-69034819D02*
X148955238Y-68034819D01*
X148955238Y-68034819D02*
X149431428Y-68034819D01*
X150193333Y-68511009D02*
X149860000Y-68511009D01*
X149860000Y-69034819D02*
X149860000Y-68034819D01*
X149860000Y-68034819D02*
X150336190Y-68034819D01*
X150860000Y-68034819D02*
X150860000Y-68272914D01*
X150621905Y-68177676D02*
X150860000Y-68272914D01*
X150860000Y-68272914D02*
X151098095Y-68177676D01*
X150717143Y-68463390D02*
X150860000Y-68272914D01*
X150860000Y-68272914D02*
X151002857Y-68463390D01*
X151621905Y-68034819D02*
X151621905Y-68272914D01*
X151383810Y-68177676D02*
X151621905Y-68272914D01*
X151621905Y-68272914D02*
X151860000Y-68177676D01*
X151479048Y-68463390D02*
X151621905Y-68272914D01*
X151621905Y-68272914D02*
X151764762Y-68463390D01*
X148598095Y-108674819D02*
X148598095Y-109484342D01*
X148598095Y-109484342D02*
X148645714Y-109579580D01*
X148645714Y-109579580D02*
X148693333Y-109627200D01*
X148693333Y-109627200D02*
X148788571Y-109674819D01*
X148788571Y-109674819D02*
X148979047Y-109674819D01*
X148979047Y-109674819D02*
X149074285Y-109627200D01*
X149074285Y-109627200D02*
X149121904Y-109579580D01*
X149121904Y-109579580D02*
X149169523Y-109484342D01*
X149169523Y-109484342D02*
X149169523Y-108674819D01*
X149598095Y-109627200D02*
X149740952Y-109674819D01*
X149740952Y-109674819D02*
X149979047Y-109674819D01*
X149979047Y-109674819D02*
X150074285Y-109627200D01*
X150074285Y-109627200D02*
X150121904Y-109579580D01*
X150121904Y-109579580D02*
X150169523Y-109484342D01*
X150169523Y-109484342D02*
X150169523Y-109389104D01*
X150169523Y-109389104D02*
X150121904Y-109293866D01*
X150121904Y-109293866D02*
X150074285Y-109246247D01*
X150074285Y-109246247D02*
X149979047Y-109198628D01*
X149979047Y-109198628D02*
X149788571Y-109151009D01*
X149788571Y-109151009D02*
X149693333Y-109103390D01*
X149693333Y-109103390D02*
X149645714Y-109055771D01*
X149645714Y-109055771D02*
X149598095Y-108960533D01*
X149598095Y-108960533D02*
X149598095Y-108865295D01*
X149598095Y-108865295D02*
X149645714Y-108770057D01*
X149645714Y-108770057D02*
X149693333Y-108722438D01*
X149693333Y-108722438D02*
X149788571Y-108674819D01*
X149788571Y-108674819D02*
X150026666Y-108674819D01*
X150026666Y-108674819D02*
X150169523Y-108722438D01*
X150931428Y-109151009D02*
X151074285Y-109198628D01*
X151074285Y-109198628D02*
X151121904Y-109246247D01*
X151121904Y-109246247D02*
X151169523Y-109341485D01*
X151169523Y-109341485D02*
X151169523Y-109484342D01*
X151169523Y-109484342D02*
X151121904Y-109579580D01*
X151121904Y-109579580D02*
X151074285Y-109627200D01*
X151074285Y-109627200D02*
X150979047Y-109674819D01*
X150979047Y-109674819D02*
X150598095Y-109674819D01*
X150598095Y-109674819D02*
X150598095Y-108674819D01*
X150598095Y-108674819D02*
X150931428Y-108674819D01*
X150931428Y-108674819D02*
X151026666Y-108722438D01*
X151026666Y-108722438D02*
X151074285Y-108770057D01*
X151074285Y-108770057D02*
X151121904Y-108865295D01*
X151121904Y-108865295D02*
X151121904Y-108960533D01*
X151121904Y-108960533D02*
X151074285Y-109055771D01*
X151074285Y-109055771D02*
X151026666Y-109103390D01*
X151026666Y-109103390D02*
X150931428Y-109151009D01*
X150931428Y-109151009D02*
X150598095Y-109151009D01*
X168846666Y-69244819D02*
X168513333Y-68768628D01*
X168275238Y-69244819D02*
X168275238Y-68244819D01*
X168275238Y-68244819D02*
X168656190Y-68244819D01*
X168656190Y-68244819D02*
X168751428Y-68292438D01*
X168751428Y-68292438D02*
X168799047Y-68340057D01*
X168799047Y-68340057D02*
X168846666Y-68435295D01*
X168846666Y-68435295D02*
X168846666Y-68578152D01*
X168846666Y-68578152D02*
X168799047Y-68673390D01*
X168799047Y-68673390D02*
X168751428Y-68721009D01*
X168751428Y-68721009D02*
X168656190Y-68768628D01*
X168656190Y-68768628D02*
X168275238Y-68768628D01*
X169275238Y-68721009D02*
X169608571Y-68721009D01*
X169751428Y-69244819D02*
X169275238Y-69244819D01*
X169275238Y-69244819D02*
X169275238Y-68244819D01*
X169275238Y-68244819D02*
X169751428Y-68244819D01*
X170513333Y-68721009D02*
X170180000Y-68721009D01*
X170180000Y-69244819D02*
X170180000Y-68244819D01*
X170180000Y-68244819D02*
X170656190Y-68244819D01*
X171180000Y-68244819D02*
X171180000Y-68482914D01*
X170941905Y-68387676D02*
X171180000Y-68482914D01*
X171180000Y-68482914D02*
X171418095Y-68387676D01*
X171037143Y-68673390D02*
X171180000Y-68482914D01*
X171180000Y-68482914D02*
X171322857Y-68673390D01*
X171941905Y-68244819D02*
X171941905Y-68482914D01*
X171703810Y-68387676D02*
X171941905Y-68482914D01*
X171941905Y-68482914D02*
X172180000Y-68387676D01*
X171799048Y-68673390D02*
X171941905Y-68482914D01*
X171941905Y-68482914D02*
X172084762Y-68673390D01*
D11*
%TO.C,REF\u002A\u002A*%
X161230000Y-72330000D02*
X162560000Y-72330000D01*
X161230000Y-73660000D02*
X161230000Y-72330000D01*
X161230000Y-74930000D02*
X161230000Y-74990000D01*
X161230000Y-74930000D02*
X163890000Y-74930000D01*
X161230000Y-74990000D02*
X163890000Y-74990000D01*
X163890000Y-74930000D02*
X163890000Y-74990000D01*
X168850000Y-100270000D02*
X170180000Y-100270000D01*
X168850000Y-101600000D02*
X168850000Y-100270000D01*
X168850000Y-102870000D02*
X168850000Y-113090000D01*
X168850000Y-102870000D02*
X171510000Y-102870000D01*
X168850000Y-113090000D02*
X171510000Y-113090000D01*
X171510000Y-102870000D02*
X171510000Y-113090000D01*
X133290000Y-115510000D02*
X134620000Y-115510000D01*
X133290000Y-116840000D02*
X133290000Y-115510000D01*
X133290000Y-118110000D02*
X133290000Y-125790000D01*
X133290000Y-118110000D02*
X135950000Y-118110000D01*
X133290000Y-125790000D02*
X135950000Y-125790000D01*
X135950000Y-118110000D02*
X135950000Y-125790000D01*
X148530000Y-62290000D02*
X148530000Y-60960000D01*
X149860000Y-62290000D02*
X148530000Y-62290000D01*
X151130000Y-59630000D02*
X161350000Y-59630000D01*
X151130000Y-62290000D02*
X151130000Y-59630000D01*
X151130000Y-62290000D02*
X161350000Y-62290000D01*
X161350000Y-62290000D02*
X161350000Y-59630000D01*
X125670000Y-72330000D02*
X127000000Y-72330000D01*
X125670000Y-73660000D02*
X125670000Y-72330000D01*
X125670000Y-74930000D02*
X125670000Y-85150000D01*
X125670000Y-74930000D02*
X128330000Y-74930000D01*
X125670000Y-85150000D02*
X128330000Y-85150000D01*
X128330000Y-74930000D02*
X128330000Y-85150000D01*
X140840000Y-69720000D02*
X140840000Y-72390000D01*
X140840000Y-74930000D02*
X140840000Y-113160000D01*
X140840000Y-113160000D02*
X145920000Y-113160000D01*
X143510000Y-72390000D02*
X140840000Y-72390000D01*
X143510000Y-74930000D02*
X140840000Y-74930000D01*
X143510000Y-74930000D02*
X143510000Y-72390000D01*
X143510000Y-74930000D02*
X143510000Y-110490000D01*
X143510000Y-110490000D02*
X140840000Y-110490000D01*
X145920000Y-105280000D02*
X153800000Y-105280000D01*
X145920000Y-115700000D02*
X145920000Y-105280000D01*
X153800000Y-105280000D02*
X153800000Y-115700000D01*
X153800000Y-115700000D02*
X145920000Y-115700000D01*
X156210000Y-72390000D02*
X156210000Y-110490000D01*
X156210000Y-72390000D02*
X158880000Y-72390000D01*
X156210000Y-110490000D02*
X158880000Y-110490000D01*
X158880000Y-69720000D02*
X140840000Y-69720000D01*
X158880000Y-113160000D02*
X153800000Y-113160000D01*
X158880000Y-113160000D02*
X158880000Y-69720000D01*
X168850000Y-69790000D02*
X170180000Y-69790000D01*
X168850000Y-71120000D02*
X168850000Y-69790000D01*
X168850000Y-72390000D02*
X168850000Y-95310000D01*
X168850000Y-72390000D02*
X171510000Y-72390000D01*
X168850000Y-95310000D02*
X171510000Y-95310000D01*
X171510000Y-72390000D02*
X171510000Y-95310000D01*
%TD*%
M02*
